<?xml version="1.0" standalone="no"?>
<!DOCTYPE svg PUBLIC "-//W3C//DTD SVG 20010904//EN"
 "http://www.w3.org/TR/2001/REC-SVG-20010904/DTD/svg10.dtd">
<svg version="1.0" xmlns="http://www.w3.org/2000/svg"
 width="96.000000pt" height="96.000000pt" viewBox="0 0 96.000000 96.000000"
 preserveAspectRatio="xMidYMid meet">

<g transform="translate(0.000000,96.000000) scale(0.100000,-0.100000)"
fill="#000000" stroke="none">
<path d="M628 954 c-19 -6 -22 -21 -12 -48 4 -11 19 -16 49 -16 25 0 50 -6 59
-15 8 -8 18 -15 22 -15 4 0 25 -18 46 -41 28 -30 40 -54 49 -97 11 -53 14 -57
40 -57 27 0 29 3 29 40 0 46 -47 153 -82 188 -46 46 -147 76 -200 61z"/>
<path d="M634 787 c-10 -28 1 -41 47 -57 33 -12 48 -24 61 -50 23 -48 36 -60
53 -54 46 18 -22 164 -75 164 -10 0 -31 3 -49 6 -23 5 -32 2 -37 -9z"/>
<path d="M310 688 c-113 -48 -183 -109 -222 -195 -18 -38 -22 -67 -23 -143 0
-85 3 -101 28 -149 48 -93 108 -145 220 -190 15 -6 58 -11 95 -11 140 0 252
70 319 200 25 49 28 65 28 150 0 85 -3 101 -29 153 -46 91 -103 139 -219 186
-35 14 -163 13 -197 -1z"/>
</g>
</svg>
